<?xml version="1.0" encoding="UTF-8" standalone="no"?>
<!-- Created with Inkscape (http://www.inkscape.org/) -->

<svg
   width="210mm"
   height="297mm"
   viewBox="0 0 210 297"
   version="1.1"
   id="svg14107"
   sodipodi:docname="icon.svg"
   xmlns="http://www.w3.org/2000/svg"
   xmlns:svg="http://www.w3.org/2000/svg">
  <sodipodi:namedview
     id="namedview14109"
     pagecolor="#ffffff"
     bordercolor="#666666"
     borderopacity="1.0"
     showgrid="false"/>
  <defs
     id="defs14104" />
  <g
     inkscape:label="Layer 1"
     inkscape:groupmode="layer"
     id="layer1">
    <path
       style="fill:#000000;stroke-width:0.305155"
       d="M -35.824741,146.39607 V 2.9587626 H 113.75161 263.32796 V 146.39607 289.83337 H 113.75161 -35.824741 Z M 154.52456,270.56489 c 1.95486,-0.6794 3.56491,-1.50776 4.68094,-2.40829 1.0773,-0.86928 1.16077,-0.80781 1.58144,1.16456 l 0.20026,0.93899 h 3.88244 3.88245 V 260.24943 250.2387 h -8.25787 -8.25786 v 3.88476 3.88475 l 2.57084,0.0868 c 2.77015,0.0935 2.98108,0.25535 2.03982,1.56498 -1.27064,1.7679 -3.30287,2.66593 -6.05279,2.67467 -2.43654,0.008 -3.79987,-0.4775 -5.16648,-1.83887 -1.39506,-1.3897 -1.9861,-3.19701 -2.18163,-6.67116 -0.31173,-5.53891 0.74319,-8.97638 3.30895,-10.78223 1.28856,-0.90693 1.64019,-1.00738 3.54915,-1.01406 2.99539,-0.01 4.71044,0.88277 5.86684,3.05558 l 0.59641,1.1206 h 5.7586 c 6.6154,0 6.2149,0.23636 5.10301,-3.0116 -1.68007,-4.90772 -4.13426,-7.30353 -9.78361,-9.55089 -2.08136,-0.82799 -7.81032,-1.11538 -11.37403,-0.57059 -4.49698,0.68747 -8.6665,2.79477 -11.17551,5.6482 -1.48724,1.69137 -3.17007,4.98778 -3.82108,7.48488 -0.57042,2.18803 -0.57188,9.7565 -0.002,11.95313 1.67713,6.46796 6.34608,11.26736 12.35014,12.69517 2.39013,0.56838 8.72865,0.39785 10.70187,-0.28793 z m 44.54545,0.2711 c 7.02629,-1.37506 12.06905,-5.9536 14.00087,-12.71199 0.85915,-3.00573 0.76451,-9.5324 -0.1847,-12.73625 -2.73674,-9.23723 -11.94951,-14.08751 -23.38602,-12.31207 -2.15222,0.33412 -2.2763,0.37162 -4.99835,1.5102 -4.44591,1.85965 -8.05196,5.96145 -9.49033,10.79501 -1.1395,3.82928 -1.12584,9.47625 0.0324,13.37439 1.80427,6.07255 7.06276,10.71719 13.65175,12.05812 2.90509,0.59122 7.41863,0.60105 10.37442,0.0226 z m -7.8387,-9.23133 c -1.54384,-0.52777 -2.82208,-1.71074 -3.70507,-3.42896 -0.63766,-1.24081 -0.70035,-1.79078 -0.70035,-6.14403 0,-4.64706 0.0248,-4.82973 0.88449,-6.50854 0.71874,-1.40363 1.18586,-1.89306 2.49292,-2.61194 1.34669,-0.74067 1.95282,-0.8851 3.72429,-0.88745 3.30568,-0.004 5.11258,1.1145 6.51634,4.03509 0.64649,1.34504 0.71636,1.92762 0.71636,5.97284 0,4.07902 -0.0667,4.62378 -0.74049,6.05343 -1.27318,2.70117 -3.38929,3.96858 -6.58251,3.94251 -0.77126,-0.006 -1.94395,-0.19663 -2.60598,-0.42295 z m -150.553979,3.87426 v -4.78126 l -8.257862,-0.14942 -8.25786,-0.1494 L 24.0058,247.10101 23.849991,233.80317 H 17.92926 12.00853 l -0.08084,17.92966 c -0.04446,9.86132 -0.01327,18.09912 0.06934,18.30622 0.118383,0.29685 3.169582,0.3601 14.415234,0.29883 l 14.265068,-0.0777 z m 17.425087,4.74925 c 0.441805,-0.16256 0.492913,-2.01906 0.492913,-17.90521 0,-9.74812 -0.08512,-17.93654 -0.189148,-18.19652 -0.163431,-0.40842 -1.006266,-0.47269 -6.199007,-0.47269 -5.300512,0 -6.03318,0.0583 -6.207414,0.49369 -0.25238,0.6307 -0.208236,35.83733 0.04524,36.0804 0.247078,0.23693 11.413615,0.23726 12.057418,2.9e-4 z m 36.479238,-0.10899 c 0.102915,-0.15966 0.195721,-2.34484 0.206247,-4.85594 l 0.01914,-4.56563 -8.286703,-0.0797 -8.286705,-0.0796 -0.08111,-13.36768 -0.08111,-13.36766 h -6.076539 -6.076539 l -0.08084,17.92966 c -0.04446,9.86131 -0.01381,18.09776 0.06812,18.3032 0.187653,0.47056 28.373671,0.55235 28.676026,0.0833 z m 20.967714,-6.50647 0.0839,-6.64738 4.5688,-7.69634 c 2.51283,-4.233 5.58451,-9.37726 6.82593,-11.4317 1.24144,-2.05444 2.15264,-3.83906 2.02491,-3.96582 -0.12773,-0.12677 -3.07211,-0.194 -6.54306,-0.14942 l -6.31082,0.081 -3.18255,5.88774 c -1.7504,3.23826 -3.26428,5.9661 -3.36416,6.06188 -0.0999,0.0957 -1.54817,-2.41922 -3.2184,-5.58889 -1.67023,-3.16969 -3.17818,-5.93117 -3.35099,-6.1366 -0.23324,-0.27727 -1.99069,-0.37354 -6.820011,-0.37354 -4.997331,0 -6.505625,0.0866 -6.505012,0.37354 3.13e-4,0.20543 0.511465,1.18037 1.135609,2.1665 0.624145,0.98614 3.708798,6.01649 6.854783,11.17859 l 5.719971,9.38562 v 6.62657 c 0,3.6446 0.0965,6.71908 0.21441,6.83216 0.11792,0.11307 2.81731,0.16911 5.99863,0.12451 l 5.78423,-0.081 z M 54.700113,163.72807 c 0,-47.80138 -0.08129,-60.27746 -0.402042,-61.70793 -0.491455,-2.191722 -1.495866,-5.218776 -2.330125,-7.022445 -1.223069,-2.644273 -4.489108,-7.017733 -6.806398,-9.114246 -2.08215,-1.883777 -7.918042,-5.783603 -15.427726,-10.309556 -1.499885,-0.903953 -3.98825,-2.416768 -5.529699,-3.361811 -1.541453,-0.945043 -2.987922,-1.718259 -3.214377,-1.718259 -0.339894,0 -0.409369,10.285231 -0.398167,58.943757 0.0083,36.36864 0.127863,59.4588 0.311982,60.28851 0.16413,0.7396 0.497407,2.35327 0.740621,3.58592 0.480468,2.43512 2.395884,7.19679 3.671907,9.12825 1.798263,2.72198 4.910167,6.04036 7.5322,8.03199 2.702331,2.05261 6.220846,4.32717 12.970729,8.38502 1.79959,1.08186 4.253577,2.62254 5.453304,3.42373 1.199728,0.80118 2.461777,1.4354 2.804557,1.40937 0.620998,-0.0472 0.623234,-0.26234 0.623234,-59.9623 z m 120.983717,57.74846 c 0.88962,-0.61633 2.41292,-1.59126 3.38511,-2.1665 4.87146,-2.88243 13.15098,-8.11929 15.88365,-10.0465 3.81516,-2.69064 7.06061,-6.62667 9.36758,-11.36084 0.76036,-1.56034 1.51615,-3.51287 1.6795,-4.33895 0.16337,-0.82607 0.50856,-2.09943 0.7671,-2.82966 0.41289,-1.16623 0.46949,-8.60419 0.46529,-61.15753 -0.002,-32.906386 -0.12252,-60.007898 -0.26644,-60.225579 -0.2011,-0.304171 -0.79792,-0.06207 -2.57837,1.045898 -1.27418,0.792923 -3.96486,2.450222 -5.97927,3.682887 -10.28929,6.296212 -12.77211,8.003884 -15.68356,10.787045 -5.09623,4.871682 -8.1884,10.632517 -9.12701,17.003929 -0.35052,2.3794 -0.50696,119.9064 -0.16032,120.44424 0.28603,0.44383 0.52424,0.35492 2.24674,-0.83844 z m -70.03785,-57.25227 c 0.0257,-30.2213 -0.0553,-32.48296 -1.30675,-36.50494 -1.71875,-5.52368 -3.42106,-8.28691 -7.699091,-12.49731 -2.818959,-2.7744 -4.171751,-3.79721 -9.524886,-7.20149 -3.431602,-2.18232 -6.65996,-4.19469 -7.17413,-4.47196 -0.514169,-0.27726 -1.565877,-0.89507 -2.337131,-1.37291 -0.771252,-0.47784 -2.103417,-1.28424 -2.960364,-1.79202 -0.856949,-0.507764 -1.796762,-1.082124 -2.088472,-1.276328 -0.291712,-0.194217 -0.61361,-0.273311 -0.715331,-0.175761 -0.299906,0.287596 -0.148808,61.246679 0.155058,62.555339 1.383045,5.95633 3.006678,9.2899 6.93004,14.22841 2.566064,3.23001 7.401542,6.69469 18.9342,13.56658 2.142367,1.27656 4.228297,2.53749 4.635397,2.80206 2.02371,1.31515 2.33352,1.46645 2.71519,1.32601 0.33691,-0.12399 0.41607,-5.41986 0.43627,-29.18568 z m 19.86314,26.51124 c 0.98882,-0.59532 2.49899,-1.51833 3.35593,-2.05115 0.85695,-0.5328 2.39945,-1.47885 3.4278,-2.10231 4.52663,-2.7444 11.06286,-6.96521 12.82101,-8.27925 3.91898,-2.92902 7.81851,-8.53132 9.88864,-14.20666 l 1.27875,-3.50574 0.0981,-31.34556 c 0.0671,-21.44244 -0.004,-31.443835 -0.22629,-31.656631 -0.22478,-0.215551 -0.97167,0.107522 -2.43216,1.052061 -1.15926,0.749715 -3.51004,2.20469 -5.22394,3.23325 -1.7139,1.02857 -5.73243,3.53936 -8.93009,5.57953 -6.57662,4.19602 -9.68968,6.98527 -12.1669,10.90133 -1.59695,2.52451 -3.36115,6.327 -3.37182,7.26751 -0.003,0.33182 -0.31927,1.20843 -0.70113,1.94803 l -0.6943,1.34472 -0.0876,31.06239 c -0.0482,17.0843 -0.0176,31.23753 0.0681,31.45161 0.25274,0.63162 0.98766,0.45572 2.89592,-0.69313 z M -17.750933,53.236102 c 0.09798,-5.496605 0.271476,-8.75278 0.467427,-8.772521 0.17139,-0.01727 2.400647,3.94986 4.953903,8.815836 l 4.6422855,8.847229 h 3.1878971 c 2.1798197,0 3.2843975,-0.11812 3.4930624,-0.373534 0.16784,-0.205444 1.92485095,-3.399164 3.9044693,-7.097158 5.2460172,-9.799725 5.2807213,-9.861313 5.5569393,-9.861313 0.3313552,0 0.6320225,1.663866 0.5399954,2.988276 -0.039973,0.575243 -0.044367,4.042314 -0.00978,7.7046 l 0.062904,6.658704 3.505695,-0.08449 3.505701,-0.08449 0.08108,-13.521954 0.08108,-13.521954 H 11.459441 6.6971598 L 1.4115461,45.114951 c -2.9070883,5.599889 -5.4569622,10.317987 -5.6663915,10.484665 -0.2854317,0.227163 -0.8609238,-0.657401 -2.2983618,-3.532705 -1.0546734,-2.109661 -2.797671,-5.583892 -3.8733288,-7.72051 -1.075656,-2.136618 -2.560033,-5.12863 -3.298611,-6.648917 l -1.342871,-2.764156 h -5.080862 c -4.684939,0 -5.080864,0.04191 -5.080864,0.537891 0,0.295839 0.13334,0.665755 0.296309,0.822038 0.185324,0.177715 0.188108,0.731773 0.0074,1.479198 -0.333095,1.377981 -0.413417,23.850585 -0.08637,24.164212 0.119557,0.114648 1.767234,0.170678 3.661505,0.124509 l 3.444129,-0.08394 z m 47.963285,7.581775 c 0.516447,-0.719822 1.165677,-1.392185 1.442735,-1.494139 0.277056,-0.101957 3.857736,-0.185368 7.95707,-0.185368 8.243137,0 7.87765,-0.08236 9.074828,2.044995 l 0.530837,0.943281 h 3.909712 c 2.487994,0 3.90971,-0.112513 3.90971,-0.309423 0,-0.170185 -0.613515,-1.548529 -1.363366,-3.062984 -0.749851,-1.514459 -2.030905,-4.098285 -2.846779,-5.741837 -0.815876,-1.643553 -2.313235,-4.669183 -3.327462,-6.723623 -4.573836,-9.26486 -5.677414,-11.317057 -6.144077,-11.425429 -0.273297,-0.06347 -0.917591,-0.09469 -1.431761,-0.06939 -0.514167,0.02531 -2.165316,0.06701 -3.669216,0.0927 -2.523734,0.04308 -2.755648,0.09847 -3.010651,0.719045 -0.151957,0.369799 -2.019777,4.10141 -4.15071,8.292468 -2.130933,4.191058 -4.339579,8.561414 -4.908108,9.7119 -0.568527,1.150487 -1.709614,3.419653 -2.535749,5.042592 -0.826134,1.62294 -1.426197,3.068518 -1.333466,3.212398 0.09272,0.14388 1.69609,0.2616 3.563026,0.2616 h 3.39443 z m 3.320504,-6.12666 c -0.09344,-0.144962 0.506663,-1.657778 1.333523,-3.361813 2.164087,-4.459842 2.652562,-5.529624 3.631972,-7.954196 0.821752,-2.034278 1.444314,-2.655015 1.79823,-1.792965 0.08435,0.205443 1.302445,3.106212 2.706883,6.44615 1.404438,3.339937 2.476654,6.264713 2.3827,6.499502 -0.139512,0.348646 -1.225855,0.426886 -5.927133,0.426886 -3.165971,0 -5.832749,-0.118604 -5.926175,-0.263564 z m 36.34754,3.446659 c 0.252952,-4.361912 0.701092,-5.608839 2.40759,-6.698979 1.508091,-0.963392 2.373055,-1.105751 3.863527,-0.635878 1.839178,0.579807 3.184418,1.857227 7.260495,6.894467 l 3.584024,4.42916 h 3.231833 c 1.77751,0 3.300948,-0.107239 3.385422,-0.238311 0.08447,-0.131073 -1.667446,-2.564055 -3.893155,-5.406629 -2.225709,-2.842575 -3.993011,-5.323929 -3.927342,-5.514122 0.06567,-0.190192 0.879331,-0.425568 1.808129,-0.523054 2.755499,-0.289221 4.679842,-1.577997 5.976233,-4.00242 0.862429,-1.612857 0.912276,-5.811837 0.08923,-7.516114 C 92.95146,37.445612 91.758204,36.215166 90.38031,35.537505 89.128326,34.921764 86.298999,34.823746 71.746933,34.89198 l -8.81743,0.04135 0.09215,2.017088 0.09214,2.017086 10.906608,0.149415 c 7.942757,0.108808 11.092801,0.251549 11.591769,0.52526 1.089032,0.597392 1.651972,1.601567 1.651972,2.946792 0,1.053667 -0.170985,1.391242 -1.101507,2.174718 l -1.101501,0.927438 h -7.456293 c -6.84557,0 -7.601626,0.05214 -9.230749,0.636662 -2.388573,0.857002 -4.284936,2.692091 -4.928056,4.76882 -0.505825,1.633393 -0.724375,10.40499 -0.2701,10.840619 0.119876,0.114958 1.627326,0.170988 3.349887,0.124512 l 3.131926,-0.08451 z m 55.344964,3.324767 c 1.93211,-0.538359 2.65716,-0.920046 3.83158,-2.017086 2.5114,-2.345916 3.12198,-6.161108 1.45092,-9.066069 -1.52089,-2.643922 -6.50692,-4.061621 -14.41912,-4.099845 -4.6253,-0.02235 -5.79998,-0.37453 -6.81205,-2.042344 -0.54049,-0.890682 -0.56456,-1.129699 -0.21065,-2.091793 0.48263,-1.311994 1.15116,-2.086421 2.19263,-2.539937 0.49218,-0.214322 3.99199,-0.394262 9.50433,-0.488654 l 8.7253,-0.149415 0.0921,-2.017087 0.0921,-2.017087 -10.84295,0.0033 c -11.17049,0.0034 -12.22886,0.09714 -14.65174,1.298637 -0.50176,0.248822 -1.42006,0.991378 -2.04068,1.650127 -2.895037,3.072943 -2.148533,8.42284 1.49854,10.739413 2.38305,1.513684 4.07373,1.840329 10.89859,2.105645 6.17816,0.240176 7.04424,0.393002 8.33208,1.470252 0.84097,0.70345 0.74532,3.072945 -0.1558,3.860027 -1.43195,1.250726 -1.74295,1.28475 -11.74307,1.28475 h -9.68063 v 2.191401 c 0,1.205275 0.0935,2.281055 0.20775,2.390623 0.11425,0.109566 4.96422,0.199219 10.77769,0.199219 9.9993,0 10.69861,-0.03585 12.953,-0.664005 z m 31.21784,-10.990277 0.15581,-11.504866 6.23234,-0.149415 6.23234,-0.149412 0.0928,-1.867674 c 0.0684,-1.377644 -0.0133,-1.867401 -0.31162,-1.866633 -0.22242,5.98e-4 -3.83997,-0.0098 -8.03902,-0.02282 -4.19904,-0.01314 -11.60275,-0.01359 -16.45267,-8.97e-4 l -8.81807,0.02269 0.0928,1.867674 0.0928,1.867673 6.20857,0.08119 c 3.93714,0.05149 6.3598,0.201538 6.62188,0.410122 0.33001,0.262649 0.41329,2.611611 0.41329,11.657275 V 62.14562 l 3.66152,-0.08418 3.6615,-0.08418 z m 48.86026,9.48778 c 0.0506,-1.109397 0.0506,-2.046599 0,-2.08267 -0.0506,-0.03607 -5.35069,-0.136923 -11.7778,-0.224122 l -11.68564,-0.158536 -0.0892,-3.094063 c -0.0583,-2.024916 0.0355,-3.238212 0.27187,-3.511225 0.29704,-0.343216 2.4006,-0.417164 11.86695,-0.417164 h 11.50594 l -0.0921,-2.017087 -0.0921,-2.017087 -11.51388,-0.07845 c -8.7353,-0.05952 -11.57296,-0.167691 -11.75877,-0.448242 -0.13471,-0.203388 -0.24708,-1.388514 -0.24969,-2.633619 -0.004,-2.051105 0.0709,-2.331896 0.80027,-2.988276 l 0.80507,-0.724452 10.64688,-0.03866 c 5.85578,-0.02125 10.82217,-0.05487 11.0364,-0.07471 0.27366,-0.02531 0.38952,-0.702739 0.38952,-2.277259 v -2.241207 l -12.23098,0.0018 c -12.11868,0.0018 -13.49038,0.09489 -15.71687,1.068346 -1.29307,0.56536 -3.0897,2.592819 -3.3335,3.761827 -0.26209,1.256688 -0.24475,21.912468 0.0186,22.165022 0.11589,0.111091 7.16229,0.167117 15.65878,0.12451 l 15.44814,-0.07759 z m 14.76651,-2.292292 c 0.23909,-4.845279 0.54931,-5.614936 2.45391,-6.088212 1.82192,-0.452731 3.06589,0.146624 5.60046,2.698358 1.26762,1.276186 3.54531,3.564205 5.06155,5.084491 l 2.75681,2.764155 h 3.25345 c 1.95018,0 3.25345,-0.119096 3.25345,-0.297314 0,-0.163522 -3.22524,-3.444349 -7.1672,-7.290724 -3.94196,-3.846373 -7.16679,-7.108012 -7.16629,-7.248084 6.2e-4,-0.140073 1.21912,-1.26322 2.70803,-2.495883 9.89106,-8.188734 11.74392,-9.861315 10.92432,-9.861315 -0.12854,0 -1.82055,0 -3.76002,0 h -3.52631 l -2.19346,1.867673 c -7.24786,6.171357 -11.12505,9.350161 -11.50786,9.434982 -0.28977,0.06421 -0.44595,-0.186404 -0.46556,-0.747068 -0.0927,-2.649279 -0.28303,-9.312231 -0.2826,-9.892422 6.2e-4,-0.677024 -0.0248,-0.681002 -3.81682,-0.597655 l -3.81731,0.08391 -0.0813,13.148417 c -0.0448,7.231631 -0.0124,13.320801 0.072,13.531487 0.1153,0.288333 1.06024,0.362237 3.82071,0.298828 l 3.66746,-0.08425 z"
       id="path14384" />
  </g>
</svg>
